<svg width="29" height="33" xmlns="http://www.w3.org/2000/svg">

 <g>
  <title>background</title>
  <rect fill="none" id="canvas_background" height="35" width="31" y="-1" x="-1"/>
 </g>
 <g>
  <title>Layer 1</title>
  <g id="svg_1" transform="matrix(0.0620665, 0, 0, 0.06315, 198.467, 224.833)">
   <path id="svg_2" fill="#000000" class="active-path" d="m-2829.1845,-3240.0498c-11.58203,-53.60937 -53.32422,-96.12109 -106.51954,-108.8125c24.45313,-20.625 40.01954,-51.47656 40.01954,-85.89453c0,-61.95313 -50.40235,-112.35547 -112.35157,-112.35547c-61.95312,0 -112.35547,50.40234 -112.35547,112.35156c0,34.42188 15.56641,65.26953 40.01954,85.89453c-62.86719,15 -109.75391,71.64063 -109.75391,139.03125l0,111.44922l254.09766,0c15.52343,37.125 52.21484,63.27344 94.90234,63.27344c56.69531,0 102.81641,-46.12109 102.81641,-102.81641c0,-52.65625 -39.78516,-96.18359 -90.875,-102.12109zm-260.85547,-194.71094c0,-45.21484 36.78515,-82 82.0039,-82c45.21485,0 82,36.78516 82,82c0,45.21485 -36.78515,82.00391 -82,82.00391c-45.21875,0 -82.0039,-36.78906 -82.0039,-82.00391zm146.09765,296.83203c0,3.09766 0.14454,6.16407 0.41407,9.19532l-216.2461,0l0,-81.10157c0,-62.07421 50.5,-112.57421 112.57422,-112.57421l78.32422,0c52,0 95.86719,35.4375 108.74219,83.42968c-47.64453,8.94532 -83.8086,50.84766 -83.8086,101.05078zm102.81641,72.46485c-39.95703,0 -72.46484,-32.50781 -72.46484,-72.46485c0,-39.95703 32.50781,-72.46484 72.46484,-72.46484s72.46484,32.50781 72.46484,72.46484c0,39.95704 -32.50781,72.46485 -72.46484,72.46485zm0,0"/>
   <path id="svg_3" fill="#000000" class="active-path" d="m-2825.95013,-3180.44042l-30.35156,0l0,27.33593l-27.33594,0l0,30.35157l27.33594,0l0,27.33593l30.35156,0l0,-27.33593l27.33594,0l0,-30.35157l-27.33594,0l0,-27.33593zm0,0"/>
  </g>
 </g>
</svg>