<svg width="27.1" height="28.6" xmlns="http://www.w3.org/2000/svg">

 <g>
  <title>background</title>
  <rect fill="none" id="canvas_background" height="30.6" width="29.1" y="-1" x="-1"/>
 </g>
 <g>
  <title>Layer 1</title>
  <g id="svg_1">
   <g id="svg_2">
    <path fill="#00d8ff" id="svg_3" d="m26.22583,3.46698l-2.44424,-2.57965c-1.06007,-1.12048 -2.9124,-1.12287 -3.97806,0l-17.34715,18.3165c-0.06863,0.07129 -0.11705,0.15924 -0.1429,0.25666l-2.2507,8.31754c-0.05628,0.20792 -0.00227,0.43133 0.1429,0.58344c0.10692,0.1129 0.25093,0.1735 0.39837,0.1735c0.05175,0 0.10355,-0.00713 0.1553,-0.02256l7.87736,-2.37647c0.09115,-0.02735 0.17555,-0.07959 0.24307,-0.15089l17.34599,-18.31527c0.53114,-0.56205 0.82375,-1.30823 0.82375,-2.10076c0.00005,-0.79381 -0.29255,-1.53999 -0.8237,-2.10204zm-0.79563,3.36148l-17.24355,18.20716l-6.76443,2.04016l1.93335,-7.1412l17.24355,-18.20716c0.63807,-0.67372 1.75105,-0.67255 2.38685,0l2.44424,2.57965c0.65832,0.69511 0.65832,1.82628 0,2.52139z"/>
   </g>
  </g>
  <g id="svg_7">
   <g id="svg_8">
    <path fill="#00d8ff" id="svg_9" d="m8.88437,24.87648l-5.32756,-5.5739c-0.20777,-0.21738 -0.54556,-0.21738 -0.75333,0c-0.20777,0.21738 -0.20777,0.57078 0,0.78816l5.32756,5.5739c0.10444,0.10812 0.24079,0.16277 0.37719,0.16277s0.27275,-0.05461 0.37614,-0.16277c0.20777,-0.21743 0.20777,-0.57078 0,-0.78816z"/>
   </g>
  </g>
  <g id="svg_10">
   <g id="svg_11">
    <path fill="#00d8ff" id="svg_12" d="m23.40776,3.86608c-0.20953,-0.21997 -0.55016,-0.21997 -0.75968,0l-15.04284,15.79286c-0.20953,0.21997 -0.20953,0.57759 0,0.79756c0.10532,0.1094 0.24282,0.16471 0.38037,0.16471s0.27505,-0.05526 0.37931,-0.16471l15.04284,-15.79291c0.20953,-0.21997 0.20953,-0.57759 0,-0.79751z"/>
   </g>
  </g>
 </g>
</svg>