<svg width="19.4" height="21.4" xmlns="http://www.w3.org/2000/svg">

 <g>
  <title>background</title>
  <rect fill="none" id="canvas_background" height="23.4" width="21.4" y="-1" x="-1"/>
 </g>
 <g>
  <title>Layer 1</title>
  <g id="svg_1">
   <g id="svg_2">
    <path fill="#ff3700" id="svg_3" d="m16.98197,4.50411l-3.88331,0l0,-0.59025c0,-1.0553 -0.92094,-1.91386 -2.05294,-1.91386l-3.69145,0c-1.13199,0 -2.05294,0.85855 -2.05294,1.91386l0,0.59025l-3.88331,0c-0.28779,0 -0.51803,0.21464 -0.51803,0.48294s0.23024,0.48294 0.51803,0.48294l0.93629,0l0,11.3472c0,1.42377 1.24327,2.58281 2.7705,2.58281l8.15035,0c1.52723,0 2.7705,-1.15905 2.7705,-2.58281l0,-11.3472l0.93629,0c0.28779,0 0.51803,-0.21464 0.51803,-0.48294s-0.23024,-0.48294 -0.51803,-0.48294zm-10.64457,-0.59025c0,-0.52229 0.45663,-0.94798 1.01688,-0.94798l3.69145,0c0.56024,0 1.01688,0.4257 1.01688,0.94798l0,0.59025l-5.7252,0l0,-0.59025zm8.67222,12.90333c0,0.89075 -0.77896,1.61694 -1.73444,1.61694l-8.15035,0c-0.95548,0 -1.73444,-0.72619 -1.73444,-1.61694l0,-11.3472l11.62307,0l0,11.3472l-0.00384,0z"/>
    <path fill="#ff3700" id="svg_4" d="m9.2,16.70271c0.28779,0 0.51803,-0.21464 0.51803,-0.48294l0,-8.53544c0,-0.2683 -0.23024,-0.48294 -0.51803,-0.48294s-0.51803,0.21464 -0.51803,0.48294l0,8.53186c0,0.2683 0.23024,0.48651 0.51803,0.48651z"/>
    <path fill="#ff3700" id="svg_5" d="m5.81937,16.16969c0.28779,0 0.51803,-0.21464 0.51803,-0.48294l0,-7.47298c0,-0.2683 -0.23024,-0.48294 -0.51803,-0.48294s-0.51803,0.21464 -0.51803,0.48294l0,7.47298c0,0.2683 0.23407,0.48294 0.51803,0.48294z"/>
    <path fill="#ff3700" id="svg_6" d="m12.58063,16.16969c0.28779,0 0.51803,-0.21464 0.51803,-0.48294l0,-7.47298c0,-0.2683 -0.23024,-0.48294 -0.51803,-0.48294s-0.51803,0.21464 -0.51803,0.48294l0,7.47298c0,0.2683 0.23024,0.48294 0.51803,0.48294z"/>
   </g>
  </g>
  <g id="svg_7"/>
  <g id="svg_8"/>
  <g id="svg_9"/>
  <g id="svg_10"/>
  <g id="svg_11"/>
  <g id="svg_12"/>
  <g id="svg_13"/>
  <g id="svg_14"/>
  <g id="svg_15"/>
  <g id="svg_16"/>
  <g id="svg_17"/>
  <g id="svg_18"/>
  <g id="svg_19"/>
  <g id="svg_20"/>
  <g id="svg_21"/>
 </g>
</svg>