<svg width="31" height="31" xmlns="http://www.w3.org/2000/svg">

 <g>
  <title>background</title>
  <rect fill="none" id="canvas_background" height="33" width="33" y="-1" x="-1"/>
 </g>
 <g>
  <title>Layer 1</title>
  <g id="svg_1" transform="matrix(0.0570204, 0, 0, 0.0570204, 241.403, 241.403)">
   <g id="svg_2">
    <g id="svg_3">
     <path id="svg_4" fill="#000000" d="m-3717.68169,-3747.84769l-148.732,-148.732c28.21,-34.827 45.191,-79.103 45.191,-127.309c0,-111.75 -90.917,-202.667 -202.667,-202.667s-202.666,90.917 -202.666,202.667s90.917,202.667 202.667,202.667c48.206,0 92.482,-16.982 127.309,-45.191l148.732,148.732c4.167,4.165 10.919,4.165 15.086,0l15.081,-15.082c4.165,-4.166 4.165,-10.92 -0.001,-15.085zm-306.207,-116.041c-88.229,0 -160,-71.771 -160,-160s71.771,-160 160,-160s160,71.771 160,160s-71.771,160 -160,160z"/>
    </g>
   </g>
   <g id="svg_5"/>
   <g id="svg_6"/>
   <g id="svg_7"/>
   <g id="svg_8"/>
   <g id="svg_9"/>
   <g id="svg_10"/>
   <g id="svg_11"/>
   <g id="svg_12"/>
   <g id="svg_13"/>
   <g id="svg_14"/>
   <g id="svg_15"/>
   <g id="svg_16"/>
   <g id="svg_17"/>
   <g id="svg_18"/>
   <g id="svg_19"/>
  </g>
 </g>
</svg>