<svg width="33" height="38" xmlns="http://www.w3.org/2000/svg">

 <g>
  <title>background</title>
  <rect fill="none" id="canvas_background" height="40" width="35" y="-1" x="-1"/>
 </g>
 <g>
  <title>Layer 1</title>
  <g id="svg_1" transform="matrix(0.0668812, 0, 0, 0.0668812, 238.878, 238.878)">
   <g id="svg_2">
    <g id="svg_3">
     <g id="svg_4">
      <path id="svg_5" fill="#000000" class="active-path" d="m-3221.04135,-3323.59662c0,-11.046 -8.954,-20 -20,-20l-206,0c-11.046,0 -20,8.954 -20,20s8.954,20 20,20l206,0c11.046,0 20,-8.954 20,-20z"/>
      <path id="svg_6" fill="#000000" class="active-path" d="m-3447.04135,-3263.59662c-11.046,0 -20,8.954 -20,20c0,11.046 8.954,20 20,20l125.111,0c11.046,0 20,-8.954 20,-20c0,-11.046 -8.954,-20 -20,-20l-125.111,0z"/>
      <path id="svg_7" fill="#000000" class="active-path" d="m-3400.04135,-3071.59662l-66.889,0c-22.056,0 -40,-17.944 -40,-40l0,-352c0,-22.056 17.944,-40 40,-40l245.889,0c22.056,0 40,17.944 40,40l0,123c0,11.046 8.954,20 20,20c11.046,0 20,-8.954 20,-20l0,-123c0,-44.112 -35.888,-80 -80,-80l-245.889,0c-44.112,0 -80,35.888 -80,80l0,352c0,44.112 35.888,80 80,80l66.889,0c11.046,0 20,-8.954 20,-20c0,-11.046 -8.954,-20 -20,-20z"/>
      <path id="svg_8" fill="#000000" class="active-path" d="m-3105.61635,-3254.02462c-23.394,-23.394 -61.458,-23.395 -84.837,-0.016l-109.803,109.56c-2.332,2.327 -4.052,5.193 -5.01,8.345l-23.913,78.725c-2.12,6.98 -0.273,14.559 4.821,19.78c3.816,3.911 9,6.034 14.317,6.034c1.779,0 3.575,-0.238 5.338,-0.727l80.725,-22.361c3.322,-0.92 6.35,-2.683 8.79,-5.119l109.573,-109.367c23.394,-23.394 23.394,-61.458 -0.001,-84.854zm-134.108,162.196l-40.612,11.25l11.885,-39.129l74.089,-73.925l28.29,28.29l-73.652,73.514zm105.839,-105.638l-3.875,3.867l-28.285,-28.285l3.862,-3.854c7.798,-7.798 20.486,-7.798 28.284,0c7.798,7.798 7.798,20.486 0.014,28.272z"/>
      <path id="svg_9" fill="#000000" class="active-path" d="m-3241.04135,-3423.59662l-206,0c-11.046,0 -20,8.954 -20,20s8.954,20 20,20l206,0c11.046,0 20,-8.954 20,-20s-8.954,-20 -20,-20z"/>
     </g>
    </g>
   </g>
  </g>
 </g>
</svg>